{"glyphs":{"\u0000":{"ha":361,"x_min":0,"x_max":0,"o":""},"\r":{"ha":361,"x_min":0,"x_max":0,"o":""}," ":{"ha":361,"x_min":0,"x_max":0,"o":""},"A":{"ha":1433,"x_min":81,"x_max":1353,"o":"m 725 324 q 747 315 731 315 q 763 308 764 315 q 744 296 761 301 q 708 290 717 290 q 671 307 681 290 q 667 321 665 317 q 682 326 669 325 q 711 331 703 331 q 725 324 721 331 m 536 326 q 524 308 536 317 q 499 299 511 299 q 486 301 486 299 q 499 315 486 303 q 529 332 515 332 q 536 326 536 332 m 621 438 q 615 428 622 429 q 600 438 606 424 q 599 447 597 444 q 608 449 601 450 q 621 438 621 446 m 1147 501 q 1129 431 1143 481 l 1115 385 l 1047 388 q 844 394 875 394 q 707 404 707 397 q 725 446 707 413 l 749 485 q 882 478 793 482 q 1015 474 971 475 l 1025 494 q 1049 517 1032 511 q 1119 525 1067 524 l 1135 525 q 1150 517 1150 525 q 1147 501 1150 515 m 535 567 q 499 515 519 543 q 468 470 479 486 q 456 451 457 454 q 454 447 454 450 q 467 443 454 443 q 504 446 486 443 q 540 449 535 449 q 564 431 564 449 q 552 420 564 424 q 501 414 540 417 q 428 406 435 408 q 326 264 413 396 q 240 118 240 132 q 222 93 240 101 q 142 -4 200 81 l 81 -93 l 117 -125 q 196 -190 163 -165 l 240 -224 l 311 -197 q 392 -161 385 -171 q 485 6 411 -136 q 558 161 558 149 q 543 172 558 172 q 522 154 528 172 q 499 116 514 126 q 456 106 485 106 l 449 106 l 435 106 q 369 101 392 106 q 347 100 363 100 q 301 106 322 100 q 279 118 279 111 q 281 122 279 121 q 440 139 294 136 q 473 144 464 139 q 496 171 482 149 l 518 204 l 656 210 q 935 235 796 215 q 1075 249 1046 249 l 1079 249 q 1043 101 1079 240 q 1010 -43 1006 -39 l 1017 -44 q 1083 -35 1035 -44 q 1135 -22 1131 -26 q 1206 185 1140 -17 q 1283 397 1269 388 q 1297 408 1286 400 q 1313 418 1308 415 q 1340 536 1328 429 q 1353 646 1353 642 q 1215 653 1353 649 q 917 662 1076 658 q 754 665 757 665 l 606 672 l 535 567 "},"B":{"ha":1233,"x_min":81,"x_max":1158,"o":"m 304 139 q 300 143 300 139 q 304 147 300 147 q 308 143 308 147 q 306 139 308 139 q 304 139 304 139 m 286 139 q 282 143 282 139 q 286 147 282 147 q 292 143 292 147 q 286 139 292 139 m 750 215 q 746 219 746 215 q 750 224 746 224 q 754 219 754 224 q 752 215 754 215 q 750 215 750 215 m 358 228 q 346 211 358 217 q 334 210 336 207 q 338 226 332 213 q 351 240 343 238 q 358 228 358 239 m 849 243 q 856 249 849 247 q 858 242 863 246 q 849 243 853 239 m 788 222 q 775 215 788 215 q 763 232 763 215 q 763 243 763 240 q 767 245 764 246 q 775 240 769 244 q 788 222 788 231 m 750 240 q 750 232 756 232 q 747 235 749 232 q 740 249 735 249 q 750 240 746 249 m 497 315 q 460 324 460 315 q 497 332 460 332 q 535 324 535 332 q 516 315 535 315 q 497 315 497 315 m 753 332 q 788 326 788 332 q 740 286 788 318 q 703 253 703 260 q 707 247 703 250 q 721 228 721 239 q 681 215 721 215 q 610 194 646 215 q 575 151 575 172 q 576 143 575 149 q 576 137 576 138 q 573 133 575 136 q 566 131 571 131 q 551 131 561 131 q 451 81 522 131 q 416 56 433 68 q 388 38 399 44 q 376 33 376 32 q 408 78 376 40 q 443 125 443 118 q 404 131 443 131 q 367 139 367 131 q 424 154 367 151 q 494 179 476 157 l 511 201 l 451 204 q 383 224 392 206 q 379 235 379 231 q 411 244 379 244 q 468 242 418 244 l 540 238 q 631 343 601 307 l 674 338 q 753 332 721 332 m 728 379 q 724 388 724 383 q 728 395 724 393 q 738 394 733 397 q 742 385 742 390 q 737 378 742 381 q 728 379 732 376 m 1099 1136 q 1003 1004 1054 1092 q 952 926 965 940 q 900 897 939 913 q 823 840 861 881 q 599 568 785 799 q 472 412 539 494 q 365 281 404 329 q 318 224 325 232 q 81 -83 81 -64 q 189 -162 82 -101 l 297 -224 l 650 35 q 828 165 729 93 q 980 277 926 238 q 1043 324 1033 317 q 1081 358 1081 351 l 1058 411 l 1036 458 l 965 460 q 815 467 871 463 l 739 471 l 818 572 q 897 674 840 600 q 976 775 954 747 l 1056 875 l 1057 943 l 1057 1011 l 1108 1089 q 1153 1175 1158 1169 l 1151 1175 q 1099 1136 1138 1175 "},"C":{"ha":1619,"x_min":81,"x_max":1539,"o":"m 490 -178 q 456 -178 482 -178 q 417 -179 431 -179 q 378 -178 403 -179 q 343 -178 353 -178 q 326 -176 332 -178 l 417 -176 l 508 -176 l 490 -178 m 786 -53 q 783 -49 781 -50 q 792 -47 785 -47 q 799 -47 796 -47 q 801 -51 804 -47 q 786 -53 796 -57 m 1351 458 q 1254 415 1331 458 q 775 179 1186 375 q 361 -22 369 -17 q 351 -36 351 -31 q 389 -69 351 -47 q 419 -93 419 -87 q 417 -94 419 -94 q 367 -76 403 -94 l 324 -53 l 240 -85 q 156 -110 175 -110 q 139 -106 144 -110 q 113 -100 128 -100 q 81 -117 81 -100 q 128 -149 81 -125 q 193 -172 175 -172 q 207 -181 207 -172 q 261 -206 207 -187 q 318 -219 303 -219 q 333 -215 328 -219 q 780 -187 346 -208 q 1331 -167 1214 -167 l 1350 -167 q 1360 -167 1354 -167 q 1368 -168 1365 -168 q 1418 -132 1389 -168 q 1447 -78 1447 -97 l 1447 -69 q 1422 -46 1443 -46 q 1412 -47 1417 -46 q 1403 -47 1407 -47 l 1400 -49 q 1361 -22 1394 -49 q 1318 3 1331 3 q 1297 -3 1314 3 q 1088 -19 1276 -11 q 771 -28 900 -28 q 682 -22 682 -28 q 986 144 682 -21 q 1292 314 1275 297 q 1321 322 1303 322 q 1343 321 1335 322 q 1367 319 1353 319 q 1435 340 1394 319 l 1490 367 q 1517 375 1492 367 l 1539 383 l 1519 406 q 1460 448 1504 421 q 1406 475 1415 475 q 1385 467 1399 475 q 1351 458 1371 458 "},"D":{"ha":1424,"x_min":79,"x_max":1343,"o":"m 511 25 q 497 6 511 19 q 476 -7 483 -7 l 475 -7 q 474 -3 474 -6 q 482 17 474 6 q 499 29 490 29 q 511 25 511 29 m 208 172 q 215 164 215 169 q 203 160 215 160 q 169 168 186 160 l 146 181 l 171 181 q 208 172 197 181 m 264 240 q 260 244 260 240 q 264 249 260 249 q 268 244 268 249 q 266 240 268 240 q 264 240 264 240 m 200 246 q 183 253 183 242 q 197 263 183 263 q 214 254 214 263 q 200 246 214 250 m 544 310 q 644 299 644 304 q 574 230 644 297 q 503 160 504 163 q 508 153 501 157 q 525 147 515 149 q 553 124 553 143 q 538 117 553 117 q 506 118 519 117 l 456 124 q 364 39 425 94 l 400 38 q 429 34 422 38 q 436 21 436 31 q 419 4 436 4 q 394 17 406 4 q 369 29 383 29 q 313 -6 347 29 q 278 -33 282 -33 q 276 -32 276 -33 q 293 49 276 -18 q 307 122 307 106 q 283 142 306 129 q 261 156 261 146 q 296 171 261 168 q 326 181 326 174 q 332 213 326 185 q 317 243 338 240 q 304 244 306 244 l 318 247 l 319 247 q 339 254 333 249 q 347 276 344 260 q 358 310 351 300 q 403 315 364 315 q 544 310 411 315 m 1276 1018 q 1167 889 1213 925 q 1065 782 1136 864 q 968 661 993 700 q 885 554 954 639 l 815 469 q 544 474 725 471 q 272 478 363 476 l 207 401 q 136 290 142 325 q 138 257 131 254 q 167 249 167 263 q 149 243 167 240 l 144 243 q 132 237 135 243 q 128 210 129 231 q 122 167 128 178 q 97 39 115 156 q 79 -107 79 -78 q 81 -114 79 -111 q 210 -168 86 -119 l 332 -215 l 438 -144 q 615 11 539 -76 q 689 101 689 94 q 713 129 689 108 q 897 338 736 151 q 1058 531 1058 525 q 1161 656 1058 533 l 1264 776 q 1264 779 1264 778 l 1265 781 q 1250 824 1265 797 l 1229 858 l 1288 964 q 1343 1089 1343 1063 q 1339 1097 1343 1097 q 1276 1018 1331 1097 "},"E":{"ha":1631,"x_min":81,"x_max":1551,"o":"m 196 7 q 200 11 186 11 q 210 11 207 13 q 208 6 215 8 q 196 7 203 4 m 529 26 q 497 9 524 14 q 378 -1 471 4 l 269 -7 l 285 11 q 325 29 297 25 q 460 36 353 33 l 492 36 q 531 29 531 36 q 530 28 531 28 q 529 26 529 28 m 919 29 q 917 42 900 31 q 935 54 932 54 q 938 42 938 54 q 919 29 938 29 m 811 42 q 790 31 811 26 q 765 29 768 36 q 703 19 763 24 q 601 14 644 14 q 571 17 579 14 q 567 33 558 22 q 657 44 576 43 q 711 46 694 44 q 743 49 728 47 q 778 53 758 51 q 811 42 811 54 m 421 364 q 444 371 432 372 q 456 357 456 369 q 433 344 456 344 q 419 347 428 344 q 411 352 413 350 q 412 356 410 354 q 421 364 414 358 m 764 349 q 729 329 751 329 q 719 332 725 329 q 729 360 711 339 q 747 376 743 375 q 758 368 751 378 q 764 349 769 354 m 736 394 q 660 374 722 385 q 561 363 599 363 q 543 364 547 363 q 535 375 521 368 q 600 389 547 381 q 678 397 653 397 l 686 397 q 703 400 703 392 q 729 408 703 408 l 756 408 l 736 394 m 508 533 q 372 339 379 350 q 361 317 361 324 q 371 301 361 311 q 389 297 385 288 q 442 304 392 304 q 511 303 482 304 q 623 292 594 299 q 651 272 651 286 q 567 265 651 265 q 446 274 453 265 q 432 282 442 282 q 427 281 428 282 q 428 278 426 281 q 428 275 428 276 q 401 267 428 272 q 344 257 374 261 l 315 253 q 193 87 306 247 q 81 -86 81 -74 q 100 -117 81 -99 q 181 -187 119 -136 q 251 -228 229 -228 l 260 -228 q 724 -128 356 -208 l 1161 -33 l 1206 54 q 1244 143 1244 128 q 1242 150 1244 147 q 1221 156 1236 156 q 1113 142 1196 156 q 528 50 546 50 q 531 61 526 50 q 543 90 535 72 q 561 128 551 108 l 600 203 l 885 239 q 1196 279 1174 275 q 1223 295 1211 282 q 1260 350 1235 308 q 1300 422 1300 415 q 1215 425 1300 425 q 1013 422 1171 425 l 726 415 q 769 501 742 443 l 1047 501 q 1082 551 1069 535 l 1482 551 l 1521 614 q 1551 678 1551 664 q 1550 682 1551 682 q 1267 689 1543 683 q 811 700 1100 692 l 629 706 l 508 533 "},"F":{"ha":1524,"x_min":75,"x_max":1443,"o":"m 485 425 q 414 413 453 418 l 376 407 l 233 103 q 83 -217 93 -201 q 92 -232 75 -232 q 135 -178 107 -232 q 303 22 208 -40 l 357 58 l 444 239 q 532 426 532 417 q 526 432 532 432 q 485 425 515 432 m 1336 915 q 1265 899 1332 903 q 808 883 1199 894 l 615 878 l 543 742 q 467 601 489 647 q 470 597 465 600 q 484 591 475 594 q 504 586 493 588 l 544 578 l 489 581 q 475 581 483 581 q 464 582 467 582 q 382 563 431 582 q 358 552 369 558 q 342 541 347 546 q 336 533 336 536 q 460 525 336 529 q 583 514 583 521 q 531 507 583 507 q 451 509 506 507 q 385 511 397 511 l 351 510 l 374 486 q 397 451 397 463 q 428 444 397 440 q 703 456 468 450 q 909 463 867 460 q 964 475 951 465 q 971 504 983 490 q 965 515 965 513 q 994 565 965 526 q 1026 614 1029 611 l 1019 614 q 841 606 997 614 q 660 597 685 597 l 651 597 q 683 676 651 613 l 718 751 l 775 757 q 1122 776 813 760 l 1415 790 l 1424 828 q 1436 899 1431 863 l 1443 931 l 1392 931 q 1336 915 1342 931 "},"G":{"ha":1342,"x_min":79,"x_max":1261,"o":"m 782 139 q 778 143 778 139 q 782 147 778 147 q 786 143 786 147 q 784 139 786 139 q 782 139 782 139 m 683 167 q 680 171 678 169 q 689 172 682 172 q 696 172 693 172 q 699 168 703 172 q 683 167 693 161 m 229 579 q 200 579 214 576 q 196 582 196 581 q 214 583 196 583 q 229 579 235 583 m 785 772 q 771 750 779 754 q 725 742 763 746 q 458 732 676 738 q 229 719 242 726 q 186 658 217 714 q 156 589 156 603 q 147 576 156 576 q 110 526 140 576 q 79 465 79 475 q 301 114 79 454 q 536 -228 522 -228 q 607 -162 546 -228 q 668 -86 668 -97 q 633 -81 668 -81 q 613 -79 621 -81 q 606 -71 601 -76 q 629 -65 610 -65 q 654 -66 638 -65 q 676 -67 671 -67 l 683 -67 q 778 29 696 -62 q 845 104 829 89 q 875 119 861 119 q 882 119 878 119 q 888 118 886 118 q 1001 108 914 114 l 1085 104 q 1124 164 1104 131 l 1196 164 q 1261 172 1261 164 q 1224 188 1261 179 q 1122 205 1186 197 q 989 215 1057 213 q 789 239 851 221 q 706 254 742 254 q 650 251 697 254 l 572 244 l 572 143 l 622 138 q 679 129 679 132 q 613 69 679 124 q 539 21 551 21 q 529 28 533 21 q 400 243 525 33 l 279 443 l 314 497 q 349 558 349 551 q 364 583 356 572 l 381 601 l 669 601 q 968 608 954 601 q 1004 658 978 614 q 1031 710 1031 701 q 976 735 1031 715 q 863 775 921 756 l 804 794 q 794 790 800 796 q 785 772 789 783 "},"H":{"ha":983,"x_min":79,"x_max":901,"o":"m 368 411 q 365 413 365 413 q 374 415 363 415 q 381 415 378 415 q 385 411 388 415 q 368 411 378 406 m 343 465 q 306 451 339 451 q 275 463 279 451 q 278 473 272 471 q 308 475 285 475 q 336 473 328 475 q 343 465 344 471 m 383 568 q 392 564 392 565 q 368 561 392 561 q 349 561 357 560 q 340 568 338 563 q 356 575 344 575 q 383 568 369 575 m 863 1063 q 842 1008 842 1013 q 811 978 842 1003 q 777 924 789 960 q 721 715 765 888 l 661 479 l 526 475 q 389 471 417 471 l 439 711 q 488 1003 488 944 q 472 1039 488 1039 q 392 1026 460 1039 q 321 1010 324 1013 q 303 946 313 1003 q 290 842 293 889 q 249 596 286 729 q 247 586 247 592 q 286 576 247 576 q 328 568 328 576 q 285 558 328 560 q 247 553 256 557 q 238 538 238 550 q 275 525 238 526 l 276 525 l 278 525 l 279 525 l 281 525 q 299 523 299 524 q 290 521 300 522 q 232 503 242 515 q 214 421 222 490 q 210 404 211 404 q 143 92 207 404 q 81 -222 79 -221 l 82 -224 q 110 -190 90 -224 q 143 -118 129 -156 q 167 -64 158 -76 q 206 -36 176 -51 q 256 -11 249 -14 q 313 179 260 -8 l 364 367 l 486 367 q 606 360 606 367 q 571 189 606 344 q 531 22 536 33 q 522 -11 522 6 q 531 -57 522 -28 q 582 -114 539 -87 q 626 -137 617 -137 l 628 -137 q 690 93 633 -125 q 746 291 731 251 q 779 332 761 331 q 801 365 786 332 q 817 413 817 399 q 792 446 817 421 l 765 472 l 839 778 q 901 1081 901 1042 q 897 1097 901 1093 q 889 1103 892 1103 q 863 1063 882 1103 "},"I":{"ha":1221,"x_min":79,"x_max":1140,"o":"m 569 -190 q 578 -194 575 -190 q 580 -201 582 -197 q 569 -206 578 -206 q 551 -209 568 -206 q 525 -212 533 -212 q 517 -208 517 -212 q 528 -199 517 -203 q 553 -194 539 -196 q 569 -190 567 -192 m 293 -81 q 261 -89 294 -87 q 232 -86 239 -89 q 228 -76 225 -83 q 251 -68 232 -68 q 293 -81 279 -68 m 660 725 q 365 703 646 711 q 81 692 83 694 q 82 688 79 690 q 90 682 85 685 q 101 676 94 679 q 264 663 128 665 l 403 660 l 436 610 q 494 556 468 558 q 665 521 665 535 q 627 254 665 499 q 578 -35 589 10 q 564 -51 575 -49 q 501 -54 553 -54 q 388 -42 428 -54 q 301 -29 350 -29 q 239 -35 281 -29 l 208 -39 l 208 -89 l 206 -139 l 296 -140 l 397 -140 l 433 -140 l 453 -140 q 486 -150 483 -140 q 483 -168 492 -162 q 463 -167 476 -172 q 450 -154 450 -161 q 439 -153 450 -147 q 319 -160 425 -160 q 225 -165 246 -161 q 204 -185 204 -169 q 210 -212 204 -187 q 213 -222 211 -219 q 217 -227 214 -224 q 226 -231 221 -231 q 242 -232 232 -232 q 296 -229 246 -232 q 399 -219 369 -226 q 413 -215 411 -215 q 413 -221 413 -215 q 689 -232 413 -232 l 971 -232 l 979 -200 q 988 -165 988 -175 q 961 -151 988 -156 q 916 -140 925 -144 q 907 -122 907 -136 q 910 -96 907 -118 l 915 -54 q 818 -60 883 -56 q 719 -65 753 -64 l 724 -37 q 789 294 743 76 q 840 513 835 513 q 856 511 843 513 q 891 508 868 510 q 933 506 914 507 l 1018 499 q 1140 678 1099 618 l 997 678 l 953 678 q 867 681 882 678 q 843 697 851 683 q 812 719 832 713 q 719 732 792 725 q 690 735 694 735 q 660 725 669 735 "},"J":{"ha":1228,"x_min":79,"x_max":1147,"o":"m 617 -119 l 613 -115 q 621 -114 614 -114 q 628 -114 625 -114 q 632 -118 635 -114 q 617 -119 626 -125 m 774 299 q 769 303 769 299 q 774 307 769 307 q 778 303 778 307 q 776 299 778 299 q 774 299 774 299 m 263 674 l 249 654 l 293 649 q 358 621 340 643 q 432 578 389 588 q 588 568 475 568 l 724 568 q 703 453 717 529 q 682 340 689 378 l 700 328 q 718 307 718 315 q 696 299 718 299 l 672 299 q 606 -42 635 121 l 574 -44 q 543 -60 543 -46 q 560 -92 543 -71 l 576 -114 l 557 -114 q 529 -86 536 -114 q 499 -55 522 -61 q 394 -47 476 -49 l 318 -46 l 285 35 q 232 124 253 115 q 161 128 217 128 q 79 121 79 128 q 106 92 79 113 q 149 68 133 72 q 174 44 164 65 q 218 -81 183 22 l 267 -224 l 308 -222 q 515 -211 335 -222 q 700 -199 696 -200 q 715 -135 707 -192 q 721 -118 715 -126 q 784 74 735 -94 q 842 294 833 243 q 875 410 853 374 q 904 482 893 436 q 911 514 907 493 q 917 539 915 535 q 954 554 918 554 q 996 553 978 554 q 1042 551 1015 551 q 1081 567 1072 551 q 1114 585 1089 585 q 1135 591 1131 585 q 1144 624 1140 597 q 1147 652 1146 639 q 1146 665 1147 665 q 753 681 1144 667 q 311 694 361 694 q 263 674 276 693 "},"K":{"ha":1604,"x_min":79,"x_max":1525,"o":"m 126 243 q 124 244 124 244 q 132 247 121 247 q 139 247 136 247 q 143 243 146 247 q 126 243 136 238 m 493 318 q 468 318 482 315 q 464 319 464 319 q 478 322 463 322 q 493 318 486 321 m 431 324 q 436 318 436 322 q 425 318 431 313 q 431 324 419 324 m 372 315 q 297 308 331 308 q 271 315 271 308 q 346 324 271 324 q 403 321 403 322 q 372 315 403 319 m 836 651 q 410 444 425 444 q 410 451 408 444 q 419 471 413 457 q 431 496 425 485 q 446 528 436 507 q 485 618 485 606 q 451 631 485 631 q 410 629 428 631 q 371 628 394 628 q 339 635 339 628 q 335 644 339 644 q 204 438 317 644 l 93 229 l 107 193 q 117 160 117 167 q 99 106 117 147 q 90 81 94 94 q 82 60 85 67 q 79 51 79 53 q 112 26 79 49 q 147 4 144 4 q 235 142 154 4 q 318 281 315 278 q 599 132 321 282 q 1181 -183 878 -18 q 1518 -364 1485 -347 l 1519 -364 q 1525 -351 1525 -364 q 1517 -307 1525 -336 q 1501 -278 1511 -287 q 1461 -257 1490 -269 q 1407 -242 1428 -242 q 1403 -242 1406 -242 l 1401 -243 l 1400 -243 q 1092 -91 1378 -243 q 794 61 806 61 q 784 67 786 61 q 783 90 782 72 q 784 102 783 94 q 785 113 785 110 q 751 181 785 165 q 717 204 728 190 q 712 215 711 211 q 724 221 713 218 q 743 236 743 226 q 642 307 743 246 q 540 371 540 368 q 711 464 540 374 q 907 578 889 560 q 1036 651 933 601 q 1125 701 1103 686 q 1163 740 1147 717 q 1225 808 1186 779 q 1264 850 1264 838 q 1261 863 1264 863 q 836 651 1256 863 "},"L":{"ha":1533,"x_min":78,"x_max":1456,"o":"m 842 -122 q 793 -112 793 -122 q 817 -107 793 -107 q 860 -111 836 -107 q 885 -118 885 -115 q 842 -122 885 -122 m 225 -106 q 222 -112 226 -110 q 207 -114 218 -114 q 196 -106 197 -112 q 225 -106 217 -93 m 374 728 l 390 669 l 328 421 q 240 125 268 183 q 219 89 226 97 q 203 81 213 81 q 186 83 200 81 l 157 89 l 118 -22 q 81 -136 78 -133 l 385 -154 q 649 -171 596 -165 q 735 -192 701 -176 l 781 -212 l 1089 -206 q 1244 -203 1163 -204 q 1374 -200 1326 -201 q 1428 -199 1421 -199 q 1456 -193 1456 -197 l 1446 -181 q 1401 -166 1436 -168 q 1196 -164 1367 -164 q 967 -156 967 -164 q 932 -132 967 -147 q 894 -101 894 -114 q 842 -69 894 -78 q 579 -50 790 -61 q 300 -35 303 -37 q 347 101 297 -32 q 574 735 574 707 q 569 746 574 742 q 543 756 561 756 q 497 751 528 756 q 413 740 442 747 q 394 742 397 739 q 390 761 390 744 q 374 788 390 788 q 361 779 361 788 q 374 728 361 771 "},"M":{"ha":1492,"x_min":79,"x_max":1413,"o":"m 538 358 q 560 356 543 350 q 576 353 574 360 q 563 338 579 343 q 532 332 550 332 q 501 344 501 332 q 509 359 501 353 q 525 365 517 365 q 538 358 533 365 m 1007 417 q 997 425 997 417 q 1001 433 997 433 q 1004 431 1003 433 q 1007 417 1018 417 m 1014 450 q 1019 444 1019 449 q 1008 444 1014 439 q 1014 450 1003 450 m 571 628 q 433 347 433 360 q 426 331 433 333 q 360 214 417 326 q 251 -17 303 101 l 182 -176 l 151 -181 q 124 -190 133 -182 q 100 -224 114 -199 l 79 -260 l 93 -317 q 115 -374 101 -351 q 140 -397 129 -397 q 149 -393 144 -397 q 215 -225 154 -387 q 285 -57 276 -61 q 354 -33 297 -50 l 413 -17 q 604 368 433 26 q 728 606 722 606 q 746 488 729 606 q 767 367 761 372 q 911 358 769 364 q 1025 353 996 356 q 1054 340 1054 350 q 1007 333 1054 333 q 914 335 956 333 l 771 339 l 771 304 q 781 247 772 282 q 793 211 789 211 q 794 217 794 211 q 810 225 796 232 q 842 221 818 221 l 856 221 q 875 224 872 224 q 888 199 888 224 q 884 177 888 182 q 867 172 881 172 q 853 174 857 172 q 849 178 849 175 q 856 186 850 181 q 854 206 865 199 q 839 200 840 214 q 822 175 833 175 q 811 183 815 175 q 797 197 803 197 q 786 171 786 197 q 792 133 786 151 q 856 70 796 118 q 929 22 915 22 l 931 22 q 1006 175 938 25 q 1076 342 1075 325 q 1083 358 1079 358 q 1103 390 1090 358 q 1174 547 1135 465 q 1218 628 1213 628 q 1221 596 1226 628 q 1211 475 1217 567 q 1179 110 1196 208 l 1179 103 q 1193 -17 1179 53 l 1213 -118 l 1243 -121 l 1272 -122 l 1308 -31 q 1340 71 1340 50 q 1335 103 1340 78 q 1331 138 1331 117 q 1372 429 1331 174 q 1413 715 1413 664 l 1367 744 q 1334 769 1342 760 q 1326 794 1326 779 q 1315 819 1326 814 q 1246 835 1304 825 q 1192 846 1204 842 q 1175 864 1181 850 q 1171 874 1172 872 q 1151 856 1167 879 q 1063 685 1139 839 q 938 418 988 531 l 935 410 q 914 392 919 379 q 879 608 906 411 l 851 811 l 792 817 q 726 826 731 822 q 732 854 719 829 q 740 876 740 871 q 729 888 740 882 l 710 896 q 571 628 707 896 "},"N":{"ha":1326,"x_min":79,"x_max":1246,"o":"m 319 49 l 231 46 q 208 4 224 32 q 183 -37 192 -24 l 233 -37 q 285 -46 285 -37 q 201 -62 285 -62 q 168 -74 178 -62 q 122 -149 158 -85 q 79 -250 79 -225 q 97 -271 79 -271 q 240 -246 111 -271 l 332 -228 q 503 46 422 -79 l 467 46 q 418 49 432 46 q 413 49 417 49 q 401 50 408 50 q 385 50 393 50 q 355 49 376 50 q 319 49 333 49 m 924 142 q 920 133 925 136 q 908 131 915 131 q 893 133 900 131 q 885 140 886 136 q 889 150 885 144 q 908 153 896 156 q 924 142 921 150 m 901 324 q 774 89 774 93 q 778 81 774 81 q 813 107 786 81 q 838 126 835 128 q 840 117 840 126 q 818 78 840 97 q 782 59 801 63 q 674 51 763 56 q 550 43 550 46 q 552 24 550 39 q 559 -20 554 10 q 567 -72 564 -50 q 588 -175 579 -147 q 613 -231 596 -203 l 640 -274 l 701 -272 l 708 -272 l 740 -272 q 813 -239 779 -271 q 979 42 844 -201 q 1031 135 1013 101 q 1246 535 1246 522 q 1135 546 1246 540 l 1031 551 l 901 324 m 522 575 q 258 94 278 140 q 256 86 256 89 q 289 81 256 81 q 332 72 326 81 q 347 71 339 63 q 550 79 358 79 q 746 85 746 79 q 688 308 746 107 l 624 531 l 588 535 q 559 540 565 538 q 553 554 553 543 q 558 592 553 568 q 561 610 561 608 q 557 618 561 618 q 522 575 549 618 "},"O":{"ha":1110,"x_min":79,"x_max":1031,"o":"m 807 -21 q 803 -17 803 -21 q 807 -12 803 -12 q 811 -17 811 -12 q 809 -21 811 -21 q 807 -21 807 -21 m 196 90 l 192 94 q 200 96 193 96 q 207 96 204 96 q 211 92 214 96 q 196 90 206 85 m 181 156 q 186 150 186 153 q 165 147 185 147 q 138 156 138 147 q 153 164 138 164 q 181 156 168 164 m 285 197 q 272 211 272 197 q 281 224 272 224 q 292 214 288 224 q 285 197 300 197 m 811 233 q 828 138 828 181 q 671 -53 828 7 q 424 -111 560 -94 l 375 -117 q 240 -10 286 -44 l 251 25 q 260 55 254 36 q 268 78 267 74 q 258 100 274 96 q 250 101 251 101 l 258 104 l 260 104 q 301 150 272 106 q 329 211 329 194 l 328 214 q 328 215 328 214 q 333 224 322 224 q 390 257 344 224 q 547 347 436 292 q 681 403 658 403 l 683 403 q 811 233 768 369 m 753 560 q 616 551 653 556 q 533 531 579 546 q 138 219 240 433 q 79 -18 79 99 q 99 -77 79 -53 q 235 -201 119 -101 l 319 -275 l 438 -271 q 711 -221 606 -264 q 910 -79 817 -178 q 991 19 951 -35 q 1031 88 1031 74 q 1001 217 1031 104 q 903 464 953 408 q 890 481 890 476 q 904 503 890 485 q 957 531 924 526 q 1014 561 1014 539 q 979 567 1014 567 q 753 560 964 567 "},"P":{"ha":1446,"x_min":81,"x_max":1367,"o":"m 418 324 q 414 328 414 324 q 418 332 414 332 q 422 328 422 332 q 420 324 422 324 q 418 324 418 324 m 511 358 q 507 363 507 358 q 511 367 507 367 q 515 363 515 367 q 513 358 515 358 q 511 358 511 358 m 574 458 q 557 467 557 458 q 574 475 557 475 q 590 467 590 475 q 582 458 590 458 q 574 458 574 458 m 503 467 q 499 471 499 467 q 503 475 499 475 q 507 471 507 475 q 505 467 507 467 q 503 467 503 467 m 1086 650 q 864 575 1086 644 q 633 506 642 506 q 651 557 631 508 q 681 618 672 606 q 858 636 682 621 q 1074 651 1040 651 q 1086 650 1086 651 m 1256 775 q 1250 761 1256 761 q 851 742 1131 757 q 571 726 572 728 q 504 601 561 714 q 447 482 447 489 q 425 458 447 471 l 401 447 l 429 443 q 451 433 451 442 q 428 425 451 425 q 403 419 408 425 q 375 416 400 417 q 326 414 350 415 q 301 408 301 413 q 335 368 301 397 l 372 333 l 225 24 q 81 -289 81 -283 l 83 -289 q 93 -287 88 -289 q 103 -282 99 -285 q 151 -201 122 -272 l 179 -132 q 265 -81 207 -115 q 351 -29 322 -46 l 421 119 q 490 288 490 271 q 503 311 490 306 q 515 328 515 317 q 528 356 515 343 q 938 497 538 365 q 1340 636 1338 629 q 1349 668 1344 644 q 1356 723 1353 692 q 1361 760 1360 754 l 1367 788 l 1311 788 q 1256 775 1256 788 "},"Q":{"ha":1082,"x_min":78,"x_max":1000,"o":"m 501 661 q 631 650 629 651 q 619 599 635 646 q 599 551 604 551 q 441 607 592 551 q 290 667 290 663 q 325 669 290 669 q 501 661 381 669 m 82 724 q 78 661 78 682 q 189 597 78 656 q 432 470 300 538 q 578 394 564 403 q 647 358 644 358 q 672 350 647 358 q 688 342 685 344 q 688 336 690 339 q 676 328 686 333 q 640 317 658 314 l 638 317 q 610 276 626 317 q 532 47 594 235 q 451 -221 451 -190 q 474 -240 451 -240 q 601 -201 485 -240 l 717 -164 l 744 -108 q 775 -58 761 -75 q 818 -22 789 -42 q 894 14 861 6 q 961 58 922 21 q 1000 114 1000 94 q 982 128 1000 133 q 935 117 967 122 q 893 89 901 110 q 750 -25 885 64 q 611 -114 615 -114 q 610 -110 610 -114 q 615 -85 610 -103 q 624 -53 619 -68 l 628 -37 q 673 95 638 -14 q 708 211 708 204 q 690 224 708 221 q 679 226 683 224 q 699 238 681 229 q 736 285 725 250 q 796 353 747 321 l 843 386 q 804 427 831 400 q 764 468 778 454 l 808 600 q 851 739 854 732 q 532 744 851 744 l 213 744 l 213 767 q 204 785 213 782 q 150 788 196 788 l 88 788 l 82 724 "},"R":{"ha":1435,"x_min":81,"x_max":1356,"o":"m 910 68 q 897 66 904 65 q 883 72 889 67 q 881 81 878 76 q 894 88 883 88 q 915 76 915 88 q 910 68 915 72 m 838 106 q 825 114 825 106 q 843 122 825 122 q 851 121 849 122 q 854 115 856 119 q 838 106 851 106 m 778 106 q 767 114 767 106 q 783 122 767 122 q 792 121 789 122 q 796 115 797 119 q 778 106 793 106 m 1022 121 q 950 110 982 117 q 921 107 936 107 q 894 110 908 107 l 863 117 l 910 122 q 1014 128 960 128 l 1074 128 l 1022 121 m 240 172 q 236 176 236 172 q 240 181 236 181 q 244 176 244 181 q 242 172 244 172 q 240 172 240 172 m 786 293 q 792 299 781 299 q 797 293 803 299 q 786 293 792 288 m 676 293 q 682 299 671 299 q 687 293 692 299 q 676 293 682 288 m 775 294 q 751 290 775 290 q 740 299 735 292 q 762 302 749 304 q 775 294 775 300 m 640 304 q 632 295 640 297 q 619 299 624 293 q 626 307 614 307 q 640 304 640 307 m 943 465 q 863 438 875 443 q 681 383 843 428 q 522 346 547 346 q 493 353 510 346 q 464 382 464 365 q 483 439 464 396 l 504 482 l 751 482 l 997 481 l 943 465 m 379 567 q 283 354 344 493 q 218 193 218 214 q 221 188 218 192 q 226 181 224 183 q 225 175 228 178 q 213 172 222 172 q 136 36 199 172 q 81 -103 81 -86 q 88 -121 81 -110 q 140 -190 104 -149 q 183 -231 175 -231 q 296 -26 192 -231 l 399 179 l 475 139 q 665 53 549 100 q 806 7 782 7 l 808 7 q 835 -1 825 11 q 849 -8 840 -7 q 854 6 860 -7 q 853 11 853 8 q 914 18 853 15 q 965 21 928 18 q 1017 25 1001 24 q 1050 26 1031 26 q 1069 18 1069 26 q 1048 1 1069 7 q 957 -12 1026 -4 q 886 -25 886 -21 q 1040 -72 886 -33 q 1062 -78 1049 -74 q 1083 -84 1075 -82 q 1094 -86 1092 -86 q 1180 -16 1106 -86 q 1254 64 1254 54 q 1095 129 1254 69 q 931 189 936 189 q 852 215 915 189 q 789 249 789 242 q 842 269 789 254 q 906 294 890 286 q 1132 375 933 311 q 1353 454 1340 442 q 1356 463 1356 457 q 1331 517 1356 476 q 1294 572 1297 571 q 1074 588 1290 576 q 775 601 858 600 q 564 610 664 601 q 422 618 431 618 q 402 608 411 618 q 379 567 393 597 "},"S":{"ha":999,"x_min":79,"x_max":918,"o":"m 661 653 q 350 518 468 578 q 194 430 267 476 q 121 372 121 383 q 148 347 121 368 q 175 315 175 325 q 160 303 175 307 q 144 289 150 299 q 153 274 138 274 q 158 249 163 274 q 157 236 157 243 q 158 231 157 233 q 214 200 161 222 q 601 99 453 99 l 608 99 q 665 75 640 99 q 689 38 689 51 q 665 -14 689 25 q 636 -48 647 -42 q 588 -58 625 -54 q 522 -72 538 -62 q 397 -94 511 -79 q 296 -107 314 -107 q 258 -94 278 -107 l 232 -78 l 251 -71 q 268 -39 272 -64 q 258 -3 264 -18 q 275 22 253 11 q 300 42 300 36 q 208 63 300 54 q 110 71 132 71 q 88 67 92 71 q 81 50 83 63 q 79 38 79 46 q 103 -1 79 22 q 151 -81 132 -31 q 176 -128 165 -114 q 211 -157 188 -143 l 250 -179 q 552 -140 350 -167 q 854 -101 754 -114 l 865 -72 q 874 -22 874 -51 q 868 61 874 -17 q 858 174 858 161 q 831 179 858 179 q 782 176 824 179 l 703 172 l 501 253 q 292 342 292 340 q 332 371 292 351 q 379 410 379 397 q 413 425 379 425 q 464 442 447 425 q 489 458 481 458 q 581 501 494 458 q 676 543 661 543 q 681 540 681 543 l 679 536 q 678 532 678 533 q 702 472 678 517 q 739 422 726 428 q 742 408 753 415 q 738 404 739 406 q 764 388 736 397 q 819 347 792 376 q 854 289 847 317 q 872 258 858 272 q 899 243 886 243 q 910 249 906 243 q 918 282 918 261 q 908 314 918 304 q 881 325 897 322 q 826 430 865 328 q 788 567 788 532 l 788 578 q 772 643 788 600 q 750 686 757 686 q 661 653 746 686 "},"T":{"ha":1442,"x_min":79,"x_max":1365,"o":"m 532 408 q 510 419 510 408 q 526 425 510 425 q 547 417 547 425 q 532 408 547 408 m 556 585 q 561 579 561 583 q 550 579 556 574 q 556 585 544 585 m 453 579 q 449 583 447 581 q 458 585 451 585 q 465 585 463 585 q 468 581 472 585 q 453 579 463 574 m 433 576 q 429 581 429 576 q 433 585 429 585 q 439 581 439 585 q 433 576 439 576 m 340 579 q 318 579 329 576 q 329 583 318 582 q 340 579 339 582 m 707 589 q 690 576 707 576 q 674 583 676 576 q 685 596 672 590 q 703 600 699 601 q 707 589 707 599 m 274 644 q 261 653 261 644 q 274 661 261 661 q 286 653 286 661 q 280 644 286 644 q 274 644 274 644 m 81 711 q 79 703 79 708 q 143 615 79 661 q 224 583 174 593 q 421 560 275 574 q 513 547 513 551 q 494 487 513 540 q 476 425 476 433 q 471 406 476 411 q 392 217 458 390 q 331 65 344 93 q 304 35 318 38 q 283 16 288 32 q 269 -81 278 0 q 263 -165 263 -147 q 269 -197 263 -187 q 290 -210 275 -206 l 294 -210 q 317 -188 304 -210 q 363 -94 329 -167 q 425 43 396 -22 q 481 167 454 108 q 554 331 508 226 q 654 536 646 536 q 668 535 656 536 q 705 533 681 535 q 747 531 729 532 q 807 528 800 528 q 892 551 839 528 l 950 578 l 1146 550 q 1325 529 1292 529 q 1353 539 1347 529 q 1361 557 1365 553 q 1272 572 1356 563 q 1153 601 1186 585 q 932 636 1114 621 q 721 653 756 653 q 703 656 706 653 q 703 672 700 658 q 704 682 704 676 q 665 699 704 693 q 639 701 643 701 q 590 685 619 701 l 558 667 l 390 681 q 171 701 207 696 q 135 717 135 707 q 115 729 135 729 q 81 711 88 729 "},"U":{"ha":1140,"x_min":81,"x_max":1064,"o":"m 221 51 q 196 51 210 49 q 192 53 192 53 q 206 56 190 56 q 221 51 214 54 m 535 60 q 514 60 525 57 q 524 64 510 63 q 535 60 533 63 m 735 142 q 710 150 710 142 q 735 158 710 158 q 760 150 760 158 q 747 142 760 142 q 735 142 735 142 m 654 142 q 625 150 625 142 q 660 158 625 158 q 689 151 689 158 q 654 142 689 142 m 299 150 q 294 154 294 150 q 299 158 294 158 q 303 154 303 158 q 301 150 303 150 q 299 150 299 150 m 253 151 q 242 146 253 146 q 214 156 214 146 q 229 158 214 158 q 253 151 253 158 m 907 610 q 751 357 764 376 q 694 261 726 318 q 621 179 669 214 q 564 143 572 143 l 317 0 q 319 10 315 0 q 329 37 322 19 q 343 69 336 54 q 369 133 360 107 q 390 182 379 158 q 406 251 406 210 q 402 288 406 282 q 381 294 399 294 q 293 265 354 294 q 240 237 254 247 q 219 208 226 226 q 126 -6 172 99 q 81 -129 81 -107 q 154 -179 81 -132 q 224 -217 211 -217 q 243 -208 231 -217 q 381 -113 247 -204 q 521 -22 514 -22 q 521 -32 522 -24 q 515 -56 519 -40 q 504 -86 510 -71 q 488 -142 488 -131 q 492 -151 488 -150 q 570 -191 508 -161 q 638 -221 632 -221 q 811 100 658 -221 q 921 304 811 108 l 1029 499 l 1013 547 q 1000 603 1000 581 q 1001 613 1000 610 q 1007 651 1007 629 l 1007 663 q 1049 775 1007 721 q 1054 803 1064 796 q 1038 810 1040 810 q 907 610 1031 810 "},"V":{"ha":1313,"x_min":79,"x_max":1232,"o":"m 315 47 q 302 40 310 38 q 294 53 294 42 q 308 60 294 67 q 315 47 321 54 m 283 74 q 274 83 278 74 q 271 99 271 92 q 274 108 271 107 l 278 103 q 286 91 282 99 q 290 79 290 83 q 283 74 290 74 m 450 136 q 463 125 463 131 q 433 117 463 117 q 404 126 404 117 q 410 136 404 131 q 450 136 422 149 m 243 210 q 226 218 226 210 q 249 226 226 226 q 265 221 265 226 q 258 214 265 218 q 243 210 251 210 m 1107 1140 q 968 953 1107 1125 q 847 807 882 846 q 781 750 811 768 q 713 687 746 728 q 560 471 681 646 q 400 218 400 239 q 403 210 400 211 q 411 201 411 204 l 403 203 q 393 204 399 204 q 354 167 379 204 l 333 139 l 324 175 q 294 218 315 213 q 279 222 282 221 l 292 225 l 293 225 q 311 238 311 228 q 276 429 311 256 q 238 607 242 603 q 208 619 229 615 q 196 621 203 621 q 171 597 183 621 q 114 525 158 569 q 79 485 79 490 q 92 481 79 481 q 115 462 107 481 q 142 351 122 443 q 190 114 174 207 q 228 -76 207 21 q 253 -187 246 -165 q 276 -214 261 -208 q 307 -212 297 -222 q 378 -102 318 -201 q 444 11 439 -3 q 464 42 450 28 q 524 135 478 56 q 558 191 531 146 q 613 282 585 236 q 664 364 642 328 q 746 502 729 468 q 772 588 763 536 q 819 706 786 657 q 988 915 851 756 q 1147 1085 1125 1076 q 1201 1154 1169 1092 l 1232 1217 l 1208 1217 q 1148 1187 1189 1217 q 1107 1140 1107 1157 "},"W":{"ha":1415,"x_min":79,"x_max":1336,"o":"m 454 101 q 453 106 451 103 q 460 108 456 108 q 464 100 468 106 q 454 101 458 97 m 463 119 q 468 125 457 125 q 473 119 478 125 q 463 119 468 114 m 942 193 q 928 178 942 182 q 910 183 915 174 q 899 188 907 188 q 883 188 890 188 q 875 192 875 188 q 908 201 875 201 q 942 193 942 201 m 606 340 q 596 332 597 335 q 596 328 594 329 q 606 324 597 326 q 619 315 617 319 q 617 308 622 310 q 600 310 611 307 q 578 336 578 314 q 593 356 578 351 q 611 357 606 358 q 606 340 622 353 m 1229 775 q 1167 610 1172 624 l 1147 567 q 1085 551 1126 561 q 1024 536 1044 540 l 944 371 q 735 -37 750 -37 q 713 64 725 -37 q 693 174 700 167 q 513 183 685 182 q 441 187 456 185 q 426 199 426 189 q 467 210 426 210 q 561 207 472 210 l 696 201 l 692 232 q 681 290 686 278 q 663 303 675 303 q 640 317 651 303 q 629 344 629 331 q 638 353 631 350 q 658 340 653 356 q 667 329 663 329 q 674 354 674 329 q 672 372 674 365 q 658 410 669 397 q 604 457 647 424 q 536 499 551 499 l 535 499 q 465 351 531 494 q 396 197 399 208 q 307 0 389 176 q 271 -69 275 -69 q 269 -33 269 -69 q 278 158 269 144 q 286 243 281 165 q 296 337 289 281 q 303 424 303 393 q 292 531 303 471 q 274 620 278 611 q 257 632 271 629 q 242 633 251 633 q 214 617 225 633 q 181 542 203 600 q 151 450 151 465 q 158 426 151 443 q 164 397 164 410 q 125 129 164 358 q 79 -147 79 -143 q 119 -178 79 -153 q 167 -228 163 -204 q 181 -252 171 -247 q 236 -264 190 -257 q 306 -292 301 -275 q 309 -301 307 -299 q 315 -303 311 -304 q 325 -294 318 -301 q 390 -173 335 -286 q 497 49 444 -60 q 553 158 550 158 q 613 -228 556 158 q 672 -251 619 -244 q 729 -260 728 -257 q 724 -286 733 -264 q 731 -315 714 -307 q 736 -317 732 -317 q 781 -260 749 -317 q 913 -3 813 -203 q 1011 193 1007 186 q 1188 557 1078 306 q 1241 673 1231 657 q 1272 690 1251 689 q 1299 699 1290 692 q 1321 729 1308 706 q 1336 771 1336 756 q 1326 819 1336 786 q 1281 894 1307 894 q 1229 775 1274 894 "},"X":{"ha":1057,"x_min":81,"x_max":976,"o":"m 517 193 q 504 201 504 193 q 517 210 504 210 q 529 201 529 210 q 523 193 529 193 q 517 193 517 193 m 553 206 q 551 214 547 210 q 567 218 554 218 q 583 214 579 218 q 581 206 586 210 q 567 201 575 201 q 556 203 558 201 q 553 206 553 206 m 274 671 q 225 644 225 651 q 341 494 225 636 q 464 353 457 353 q 475 339 469 353 q 506 297 481 322 q 526 265 526 276 q 521 247 526 257 q 496 213 511 228 q 422 122 467 179 q 376 58 376 64 q 369 49 376 49 q 220 -129 360 49 q 81 -318 81 -307 q 89 -324 81 -324 q 121 -308 110 -324 q 194 -236 132 -292 q 463 -100 296 -146 l 519 -85 l 565 26 q 622 138 611 138 q 710 43 635 138 q 785 -41 765 -24 q 846 -76 804 -58 q 903 -94 886 -94 q 908 -87 908 -94 q 901 0 908 -65 l 892 85 l 849 114 q 756 207 808 144 l 704 271 l 779 379 q 915 554 858 492 l 976 621 l 908 654 q 838 679 856 679 q 808 635 814 679 q 715 492 803 600 q 622 381 628 381 q 549 461 614 381 q 469 594 483 542 l 456 644 l 401 668 q 335 689 351 689 q 274 671 321 689 "},"Y":{"ha":1204,"x_min":81,"x_max":1124,"o":"m 796 506 q 792 510 792 506 q 796 514 792 514 q 800 510 800 514 q 798 506 800 506 q 796 506 796 506 m 639 660 l 583 628 l 578 567 q 574 514 574 533 q 615 424 574 469 q 681 375 660 375 q 713 388 692 375 q 738 401 732 401 q 739 399 740 401 l 572 196 q 244 -207 407 -7 q 81 -410 81 -407 q 97 -417 81 -417 q 190 -326 114 -417 q 268 -243 244 -264 q 346 -194 292 -222 q 438 -154 421 -154 q 771 229 453 -154 q 1107 631 1082 601 l 1124 650 l 928 650 l 844 585 q 735 490 735 499 q 738 489 735 489 q 761 474 749 489 q 769 460 771 464 q 749 449 768 457 q 719 439 721 438 q 703 496 703 460 q 707 546 703 514 q 714 635 714 601 q 703 689 714 685 l 701 689 q 639 660 690 689 "},"Z":{"ha":1333,"x_min":78,"x_max":1254,"o":"m 468 -124 l 461 -121 q 456 -117 456 -118 q 474 -112 458 -112 q 485 -119 485 -114 q 468 -124 479 -128 m 560 -58 q 538 -58 549 -61 q 549 -54 533 -56 q 560 -58 558 -56 m 657 263 q 622 263 640 260 q 617 264 618 263 l 638 267 q 653 267 647 268 q 657 263 665 265 m 106 726 q 256 701 138 708 l 375 696 q 401 586 386 653 l 478 589 q 683 604 549 592 q 824 614 783 614 q 833 613 828 614 q 840 613 839 613 l 850 611 l 829 608 l 828 608 l 826 608 l 825 608 q 776 589 785 607 q 650 421 768 567 q 543 276 543 289 q 554 268 543 271 q 571 264 569 264 l 551 261 q 503 233 529 260 q 354 53 478 206 l 258 -65 l 308 -69 q 342 -71 319 -71 q 383 -68 367 -71 q 429 -62 406 -62 l 439 -62 q 461 -65 461 -62 q 335 -86 461 -75 l 239 -94 l 204 -135 q 168 -185 168 -174 q 189 -208 168 -197 q 211 -214 196 -214 q 642 -124 250 -214 l 1072 -24 l 1089 6 q 1111 32 1100 25 q 1150 44 1122 39 q 1197 61 1194 51 q 1190 72 1199 65 q 1168 82 1181 78 q 1107 114 1143 89 l 1079 136 l 800 74 q 518 17 535 17 q 527 33 517 17 q 558 78 538 50 q 599 135 578 106 q 678 257 678 242 q 685 268 678 268 q 847 469 696 268 l 996 672 l 1060 690 q 1185 708 1118 708 q 1254 722 1254 708 q 1167 731 1254 729 q 753 735 1081 733 q 201 743 254 735 q 99 757 125 757 q 78 750 78 757 q 106 726 78 742 "},"a":{"ha":990,"x_min":81,"x_max":911,"o":"m 513 158 q 490 150 513 150 q 474 154 479 150 q 481 169 461 163 q 502 169 492 172 q 513 158 513 165 m 376 172 q 372 167 376 169 q 360 167 360 156 q 368 175 360 175 q 376 172 376 175 m 764 251 l 754 207 l 665 213 q 532 218 568 218 l 486 218 l 500 243 l 513 268 l 601 268 q 696 281 689 268 q 722 292 699 286 q 763 299 746 299 q 772 296 772 299 l 764 251 m 374 325 q 326 247 326 256 q 361 247 326 242 l 381 249 q 392 242 394 249 q 346 226 386 232 l 304 222 l 243 135 q 186 35 186 50 q 179 24 186 24 q 124 -39 167 24 l 81 -101 l 121 -135 q 142 -152 131 -143 q 164 -169 154 -161 q 175 -178 174 -176 q 189 -182 181 -182 q 235 -169 200 -182 l 282 -151 l 338 -49 q 393 60 393 56 q 385 67 392 64 q 364 50 369 65 q 301 28 361 35 q 263 26 286 26 q 221 35 221 26 q 226 42 221 38 q 289 49 236 49 q 333 52 322 49 q 350 69 343 56 q 372 87 357 83 q 447 93 388 90 q 624 108 531 97 q 710 115 683 115 q 721 113 721 115 q 703 22 721 103 q 686 -67 686 -60 q 726 -67 686 -72 l 765 -61 l 808 72 q 872 222 853 207 q 896 285 890 238 q 907 353 900 321 l 911 376 l 842 382 q 597 392 779 386 l 424 396 l 374 325 "},"b":{"ha":863,"x_min":81,"x_max":783,"o":"m 529 144 q 501 115 529 140 q 485 90 476 93 q 496 86 496 90 q 469 74 496 74 q 424 60 447 74 q 401 35 401 47 q 379 18 401 24 q 314 -18 358 14 l 271 -49 l 294 -17 q 318 18 318 15 q 294 26 318 24 q 282 28 283 28 l 299 31 l 301 31 q 338 42 322 32 q 354 61 354 51 q 347 69 354 67 q 308 74 336 74 q 279 83 279 74 q 328 89 279 89 q 379 94 368 90 q 407 119 390 99 q 436 145 425 140 q 481 150 447 150 q 529 144 529 150 m 371 144 q 350 144 361 142 q 360 149 346 147 q 371 144 369 147 m 735 664 q 674 579 699 622 q 613 517 646 531 q 540 450 592 508 q 331 197 489 392 q 81 -121 81 -108 q 145 -169 81 -128 q 221 -210 210 -210 q 564 40 225 -210 q 631 89 593 61 q 689 132 668 117 q 714 150 710 147 l 735 164 l 715 199 l 699 235 l 606 235 q 513 240 513 235 q 614 372 513 243 q 702 491 689 469 q 715 546 715 513 q 749 640 715 593 q 783 694 783 692 q 779 700 783 700 q 735 664 768 700 "},"c":{"ha":1097,"x_min":81,"x_max":1015,"o":"m 883 178 q 537 14 824 156 q 250 -135 250 -128 q 257 -146 250 -146 q 281 -158 263 -146 q 288 -165 288 -164 q 265 -157 289 -168 q 232 -147 244 -147 q 189 -158 217 -147 q 114 -175 149 -175 q 81 -187 81 -175 q 92 -199 81 -192 q 211 -250 161 -233 q 244 -247 224 -256 q 529 -231 260 -240 q 896 -214 851 -219 q 940 -196 925 -210 q 961 -157 961 -175 q 951 -146 961 -146 q 910 -124 939 -146 q 874 -107 885 -107 q 863 -110 871 -107 q 750 -120 853 -115 q 558 -125 647 -125 q 478 -119 478 -125 q 681 -7 478 -115 q 892 93 867 93 l 893 93 l 897 93 q 963 110 911 93 q 1015 136 1015 126 q 982 169 1015 144 q 936 193 949 193 q 883 178 925 190 "},"d":{"ha":972,"x_min":81,"x_max":892,"o":"m 399 117 l 449 113 l 400 71 q 354 21 354 31 q 369 15 354 15 q 386 7 386 15 q 360 0 386 -3 l 356 0 q 256 -61 315 0 q 214 -96 221 -96 q 210 -89 210 -96 q 221 -36 210 -78 q 233 13 233 8 q 217 15 233 15 q 200 24 200 15 q 221 32 200 32 q 243 49 242 32 q 247 72 246 68 q 262 116 257 108 q 285 124 267 124 l 306 124 q 399 117 363 121 m 853 581 q 776 492 810 521 q 644 342 731 450 l 551 226 l 201 226 q 119 131 154 175 l 97 -10 q 81 -150 81 -108 q 84 -156 81 -153 q 97 -164 88 -160 q 115 -172 107 -168 q 138 -181 122 -175 q 164 -190 154 -186 l 243 -221 l 313 -174 q 458 -35 382 -126 q 693 243 599 133 l 851 429 l 838 453 q 829 475 829 467 q 860 542 829 489 q 892 618 892 600 q 890 622 892 622 q 853 581 881 622 "},"e":{"ha":1125,"x_min":81,"x_max":1044,"o":"m 501 -33 q 498 -29 496 -31 q 507 -28 500 -28 q 514 -28 511 -28 q 517 -32 521 -28 q 501 -33 511 -39 m 440 -44 q 401 -36 401 -44 q 440 -28 401 -28 q 478 -36 478 -28 q 440 -44 478 -44 m 364 -35 q 365 -36 364 -36 q 365 -37 365 -36 q 292 -54 365 -50 l 256 -54 q 218 -50 218 -54 q 221 -46 218 -49 q 336 -29 231 -36 q 364 -35 358 -26 m 511 167 q 508 174 506 167 q 517 183 513 183 q 521 175 521 183 q 511 167 521 167 m 308 167 q 300 175 300 167 q 308 183 300 183 q 318 175 318 183 q 308 167 318 167 m 490 193 q 486 197 486 193 q 490 201 486 201 q 494 197 494 201 q 492 193 494 193 q 490 193 490 193 m 465 193 q 415 186 449 186 l 396 186 q 401 193 383 188 q 453 199 426 199 q 465 199 461 199 q 465 193 481 199 m 779 -78 q 809 -26 785 -78 q 833 36 833 25 q 831 44 833 42 q 819 47 829 47 q 633 19 804 47 q 383 -18 401 -18 q 376 -15 376 -18 q 397 32 376 -6 q 424 69 414 64 q 567 96 442 81 q 794 127 765 121 q 839 161 822 133 q 861 203 861 199 q 839 215 861 213 q 750 218 817 218 l 686 218 l 503 218 l 517 243 l 529 268 l 617 268 q 691 272 674 268 q 719 286 708 275 q 752 300 729 297 q 863 303 775 303 l 990 303 q 1044 385 1018 349 l 915 390 q 613 400 822 394 l 439 406 l 347 276 q 261 144 261 156 q 325 140 261 140 l 350 140 l 385 140 q 444 129 433 140 q 449 122 449 125 q 414 117 449 117 l 381 117 q 348 117 369 117 q 317 118 326 118 q 290 117 306 118 q 269 117 274 117 l 235 117 l 157 7 q 81 -111 81 -103 q 131 -161 81 -117 q 186 -206 181 -206 q 481 -142 188 -206 q 779 -78 775 -78 "},"f":{"ha":1038,"x_min":81,"x_max":958,"o":"m 267 217 q 225 129 261 211 q 129 -72 196 67 q 81 -193 81 -176 q 97 -185 88 -197 q 217 -35 167 -74 q 267 19 249 -11 q 335 157 285 49 q 363 231 363 217 q 361 233 363 233 q 311 226 353 233 q 267 217 269 219 m 367 288 q 329 288 347 285 q 324 289 324 288 q 347 292 325 292 l 364 290 q 367 288 378 289 m 888 547 q 656 531 886 539 q 422 515 431 524 q 369 425 411 504 q 331 346 331 353 q 342 336 331 340 q 350 332 350 333 q 331 331 351 329 q 272 320 306 331 q 238 301 238 310 q 274 293 238 293 q 300 290 300 292 l 297 289 q 291 288 296 289 q 282 286 286 288 l 256 282 l 272 263 l 288 242 l 463 247 q 649 263 635 253 q 654 282 660 271 q 668 319 651 296 q 683 350 688 347 l 674 350 q 551 346 649 350 q 451 342 454 342 l 450 342 q 467 392 447 344 q 503 442 485 438 q 615 448 506 442 q 832 461 724 454 q 942 469 940 468 q 953 517 947 475 l 958 557 l 924 557 q 888 547 890 557 "},"g":{"ha":922,"x_min":79,"x_max":843,"o":"m 538 428 q 501 413 531 417 q 353 404 471 408 q 201 397 225 400 q 165 378 176 393 q 139 331 149 357 q 124 303 129 303 q 100 265 119 303 l 79 228 l 121 164 q 181 72 128 153 q 267 -61 233 -10 q 378 -222 371 -222 q 419 -182 385 -222 q 524 -69 428 -172 l 590 4 l 660 0 q 703 -1 678 -1 q 744 14 731 -1 q 803 32 761 32 q 843 39 843 32 q 729 64 843 49 q 469 89 615 79 l 404 92 l 399 61 q 396 43 396 47 q 444 15 396 15 q 465 8 465 15 q 417 -35 465 0 l 379 -61 l 299 74 q 217 214 217 210 q 247 269 217 221 l 278 319 l 665 319 l 682 354 q 697 392 700 390 q 621 419 694 394 q 553 439 564 439 q 538 428 546 439 "},"h":{"ha":696,"x_min":79,"x_max":615,"o":"m 249 206 q 231 198 249 200 q 210 201 214 196 q 226 210 210 208 q 249 206 249 210 m 582 585 q 550 532 571 556 q 493 364 531 510 l 454 214 l 368 211 l 343 211 q 282 215 282 211 q 313 361 282 221 q 342 540 342 494 q 331 579 342 579 q 322 578 326 579 q 269 567 292 569 q 240 556 247 563 q 225 526 232 549 q 214 450 217 500 q 201 357 214 407 q 190 296 190 308 q 194 283 190 288 q 201 278 197 279 q 217 276 206 278 l 244 275 l 214 269 q 185 251 185 265 q 179 235 185 240 q 127 6 175 232 q 79 -233 79 -219 q 82 -239 79 -239 q 102 -217 89 -239 q 121 -175 115 -196 q 165 -121 131 -137 q 201 -89 194 -104 q 251 93 207 -69 l 267 142 l 342 142 q 418 135 418 142 q 396 22 418 124 q 368 -124 368 -106 q 374 -143 368 -132 q 399 -169 381 -157 q 431 -182 418 -182 q 439 -178 436 -182 q 442 -168 439 -176 q 448 -146 444 -160 q 456 -115 451 -132 q 465 -75 460 -97 q 476 -32 471 -53 q 528 117 511 103 q 554 161 554 138 q 542 190 554 178 l 525 208 l 569 397 q 615 601 615 585 q 608 613 615 613 q 582 585 593 613 "},"i":{"ha":847,"x_min":79,"x_max":768,"o":"m 338 -189 q 329 -179 329 -189 q 332 -171 329 -171 q 338 -175 335 -171 q 338 -189 350 -189 m 451 397 q 317 383 444 389 q 135 372 210 379 l 79 365 l 107 354 q 168 346 128 346 q 214 347 196 346 l 293 353 l 314 321 q 340 292 328 299 q 396 279 353 286 q 460 265 460 268 q 432 74 460 246 q 400 -103 404 -99 q 340 -110 393 -110 q 275 -104 292 -110 q 229 -99 258 -99 q 204 -100 213 -99 q 169 -109 174 -104 q 163 -139 164 -114 l 160 -171 l 221 -174 l 282 -175 q 226 -178 264 -175 q 168 -181 188 -181 l 168 -232 l 411 -226 q 661 -217 654 -221 q 667 -193 667 -214 q 642 -167 667 -172 q 618 -150 618 -161 q 621 -133 618 -147 l 626 -104 q 560 -110 604 -107 q 496 -115 517 -112 l 500 -94 q 538 93 513 -44 l 569 261 q 630 256 590 260 q 689 250 669 251 q 768 365 729 314 l 678 368 q 572 385 592 369 q 485 403 551 403 q 451 397 457 403 "},"j":{"ha":853,"x_min":81,"x_max":774,"o":"m 197 365 q 192 350 189 356 q 210 344 196 344 q 263 322 231 344 q 305 301 285 306 q 393 294 325 297 l 492 290 l 489 260 q 482 210 486 229 q 471 143 471 150 q 479 133 471 133 q 476 124 490 133 q 440 8 461 113 q 415 -104 419 -97 q 393 -112 410 -112 q 381 -131 375 -112 q 383 -142 383 -139 q 378 -143 383 -146 q 368 -125 368 -139 q 342 -113 368 -118 q 280 -105 315 -108 q 243 -101 244 -101 q 210 -46 232 -99 l 188 7 l 147 7 q 93 13 110 7 q 86 14 90 14 q 81 11 81 14 q 113 -24 81 -3 q 165 -125 139 -40 q 199 -217 192 -206 q 243 -219 201 -219 q 385 -214 306 -219 q 474 -201 465 -208 q 489 -175 486 -192 q 497 -150 492 -160 q 540 -19 507 -133 q 576 125 572 94 q 597 192 581 157 q 618 247 614 228 l 626 282 l 675 279 q 701 278 686 278 q 729 289 725 278 q 750 303 735 303 q 766 315 758 303 q 774 339 774 326 q 769 353 774 349 q 591 364 764 358 q 292 369 418 369 q 197 365 200 369 "},"k":{"ha":1092,"x_min":79,"x_max":1011,"o":"m 260 139 q 256 143 256 139 q 260 147 256 147 q 264 143 264 147 q 262 139 264 139 q 260 139 260 139 m 572 360 q 300 233 317 233 q 300 238 300 236 q 305 250 300 240 q 313 266 310 260 q 322 283 317 272 q 340 333 340 314 q 296 344 340 344 l 281 344 l 228 343 l 158 215 q 94 76 94 100 q 97 63 94 71 q 101 42 101 53 q 93 6 101 28 l 79 -29 q 128 -62 94 -40 l 179 25 q 242 114 232 114 q 625 -90 247 114 q 1011 -294 1003 -294 l 1011 -290 q 1010 -279 1011 -286 q 1008 -265 1010 -272 q 974 -228 1003 -240 q 926 -215 943 -215 q 732 -118 914 -215 q 542 -21 547 -21 q 533 13 533 -21 q 530 42 533 33 q 513 57 526 51 q 501 82 475 74 q 508 88 508 85 q 440 139 508 99 q 382 176 382 175 q 494 240 382 181 q 613 308 608 301 q 688 350 618 317 q 804 435 753 383 q 851 490 851 482 q 849 492 851 492 l 847 492 q 572 360 842 492 "},"l":{"ha":1040,"x_min":82,"x_max":961,"o":"m 564 -196 q 543 -196 553 -199 q 553 -192 539 -193 q 564 -196 563 -193 m 258 378 q 267 340 258 374 q 269 318 269 326 q 238 160 269 288 q 181 -31 203 19 q 151 -68 164 -68 q 143 -67 146 -68 q 134 -65 139 -65 q 126 -64 129 -64 q 124 -65 124 -64 q 113 -95 124 -67 q 92 -158 103 -124 q 82 -204 82 -192 q 85 -211 82 -208 q 282 -222 100 -215 q 494 -244 474 -232 q 628 -257 518 -257 q 852 -251 743 -257 q 961 -239 961 -246 q 813 -232 961 -232 q 688 -228 715 -232 q 636 -212 660 -225 q 599 -181 603 -192 q 548 -163 594 -169 q 353 -150 501 -157 q 228 -135 228 -143 q 298 74 228 -124 q 393 331 368 271 q 399 350 399 347 q 367 364 399 364 q 333 363 347 364 q 293 360 297 360 q 275 369 275 360 q 267 383 275 383 q 258 378 258 383 "},"m":{"ha":1011,"x_min":79,"x_max":932,"o":"m 553 -29 q 547 -25 550 -29 q 546 -12 535 -12 q 556 -21 556 -12 q 553 -29 556 -29 m 589 -18 q 582 -25 588 -24 q 572 -11 572 -21 q 581 -4 572 -4 q 589 -18 589 -4 m 428 343 q 181 -168 236 -42 q 142 -250 153 -235 q 117 -265 132 -265 q 88 -292 100 -265 q 79 -322 79 -311 q 86 -358 79 -331 q 107 -397 97 -397 q 164 -290 124 -397 q 203 -194 193 -210 q 235 -172 213 -178 q 276 -164 268 -164 q 342 -48 282 -164 q 464 201 401 68 l 483 244 l 494 168 l 507 90 l 578 85 q 614 83 590 85 q 644 81 638 81 q 654 82 653 81 q 663 83 656 83 q 678 79 671 82 q 679 78 679 79 q 632 74 679 74 l 604 74 l 567 74 q 517 68 517 74 q 519 55 517 65 q 523 28 521 44 q 526 -3 525 11 q 538 -65 532 -53 q 579 -104 543 -76 q 625 -128 610 -128 q 638 -108 638 -128 q 710 69 638 -94 q 793 244 782 233 l 794 244 q 797 208 797 244 q 783 -14 797 114 q 779 -78 779 -50 q 785 -153 779 -115 q 797 -213 792 -203 q 817 -224 801 -224 q 839 -212 831 -224 q 863 -161 847 -201 q 879 -96 879 -114 q 876 -83 879 -89 q 875 -68 875 -81 q 896 97 875 -22 q 929 288 913 197 q 932 306 932 301 q 910 328 932 317 q 874 363 885 340 q 857 384 867 379 q 807 396 847 389 q 775 411 775 401 q 772 417 775 417 q 676 246 757 417 q 606 115 615 115 q 594 178 604 115 q 574 303 583 240 q 563 368 564 367 q 521 383 554 383 q 489 394 489 383 q 490 399 489 396 q 490 403 490 401 q 482 428 494 422 l 481 428 q 428 343 467 428 "},"n":{"ha":911,"x_min":81,"x_max":831,"o":"m 613 38 q 608 42 608 38 q 613 46 608 46 q 617 42 617 46 q 615 38 617 38 q 613 38 613 38 m 606 150 q 528 -1 528 14 q 550 10 531 -8 q 565 22 564 22 q 558 7 567 21 q 433 -21 542 -21 l 379 -21 l 383 -49 q 394 -118 392 -94 q 421 -196 399 -156 q 446 -227 438 -222 q 490 -232 454 -232 q 550 -221 539 -232 q 697 40 564 -204 q 831 293 831 283 q 758 299 831 299 l 689 299 l 606 150 m 338 268 q 291 185 326 249 q 240 93 256 121 l 189 0 l 219 -6 q 258 -7 253 -11 q 264 -11 264 -4 q 219 -21 264 -21 q 178 -25 186 -21 q 160 -50 169 -29 l 146 -81 l 169 -81 q 183 -82 182 -82 l 167 -87 l 164 -89 l 163 -89 q 133 -106 143 -94 q 104 -150 122 -117 q 81 -214 81 -190 q 103 -226 81 -226 q 196 -211 129 -226 l 242 -201 l 294 -117 q 347 -26 347 -33 q 310 -21 347 -21 q 285 -19 294 -21 q 276 -12 274 -17 q 394 -4 281 -4 q 453 -3 432 -4 q 488 -1 475 -3 q 504 3 500 0 q 508 10 508 6 q 435 275 508 21 q 408 292 429 289 q 390 297 394 294 q 386 310 386 300 q 387 315 386 311 q 388 322 388 319 q 386 350 390 350 q 338 268 383 350 "},"o":{"ha":771,"x_min":79,"x_max":693,"o":"m 511 172 q 550 107 535 146 q 565 33 565 68 q 564 13 565 19 q 490 -74 556 -37 q 326 -119 425 -110 q 293 -122 299 -122 q 232 -93 271 -122 q 193 -47 193 -64 q 194 -39 193 -42 q 228 42 201 -6 q 275 106 256 90 q 378 165 301 126 q 468 206 454 204 q 511 172 481 206 m 501 307 q 361 283 418 301 q 244 226 304 265 q 92 8 129 151 q 79 -57 79 -33 q 95 -101 79 -82 q 161 -164 111 -121 l 242 -233 l 328 -229 q 563 -156 475 -219 q 643 -78 600 -128 q 692 -6 686 -28 q 692 -1 692 -4 q 693 4 693 1 q 675 102 693 35 q 636 211 657 169 q 618 261 618 250 q 656 289 618 278 q 685 307 685 296 q 653 314 685 314 q 501 307 636 314 "},"p":{"ha":990,"x_min":81,"x_max":911,"o":"m 306 108 q 313 114 306 113 q 315 107 319 111 q 306 108 310 104 m 715 246 q 582 199 715 240 q 440 158 449 158 q 453 196 436 165 l 471 228 l 574 236 q 642 242 608 239 q 690 246 676 244 q 710 247 704 247 q 715 246 715 247 m 825 325 q 657 313 813 318 q 449 303 496 307 l 396 297 l 350 210 q 294 122 303 122 q 289 111 289 122 q 273 102 289 106 q 240 97 257 99 q 221 93 222 94 q 243 65 218 90 l 268 42 l 174 -156 q 81 -356 81 -349 q 85 -358 81 -358 q 105 -342 92 -358 q 128 -303 118 -326 q 152 -258 140 -271 q 200 -225 164 -246 q 251 -187 239 -203 q 296 -106 264 -171 q 343 3 340 -8 q 353 29 349 25 q 365 44 357 33 q 380 62 372 54 q 397 72 388 69 q 652 154 536 115 q 831 217 768 193 q 896 247 894 242 q 906 297 906 293 l 911 332 l 875 332 q 825 325 836 332 "},"q":{"ha":751,"x_min":78,"x_max":676,"o":"m 389 260 l 433 254 l 428 228 q 418 197 422 201 l 417 197 q 344 218 406 197 q 251 253 282 239 q 236 261 236 260 q 285 264 236 263 q 389 260 351 264 m 83 256 l 210 190 q 457 54 457 64 q 442 46 457 46 q 371 -128 428 46 q 343 -214 358 -165 q 321 -285 328 -262 q 314 -308 314 -307 q 329 -315 314 -315 q 418 -294 356 -315 q 474 -271 458 -281 q 499 -244 490 -261 q 542 -190 513 -217 q 592 -158 572 -162 q 642 -126 608 -156 q 676 -86 676 -97 q 675 -85 676 -85 q 661 -81 671 -81 q 624 -89 644 -81 q 603 -106 604 -97 q 520 -173 599 -119 q 426 -226 442 -226 q 424 -225 424 -226 q 457 -121 424 -221 q 483 -28 483 -42 q 476 -18 483 -21 q 472 -17 474 -18 q 481 -8 464 -14 q 504 22 500 -4 q 539 63 508 44 q 567 86 567 79 q 544 115 567 93 l 521 140 l 549 221 q 575 310 575 297 q 374 315 575 315 q 208 317 244 315 q 168 328 171 319 q 121 340 164 340 l 78 340 q 81 298 78 326 q 83 256 83 269 "},"r":{"ha":989,"x_min":81,"x_max":910,"o":"m 607 81 q 603 88 603 82 q 613 97 607 97 q 615 89 615 97 q 607 81 615 81 m 628 342 q 629 340 629 342 q 510 299 629 332 q 360 267 392 267 l 357 267 q 339 273 343 269 q 335 289 335 276 l 335 297 q 353 340 336 332 q 443 349 369 349 l 485 349 q 628 342 607 349 m 271 407 q 117 72 217 282 q 81 -29 81 -7 q 110 -77 81 -42 q 146 -112 139 -112 l 147 -112 l 181 -47 q 249 83 215 18 q 286 147 283 147 q 343 122 296 147 q 462 71 397 96 q 540 46 526 46 q 561 38 557 46 q 576 38 565 26 q 649 46 585 46 q 707 43 707 46 q 615 29 707 35 q 600 26 600 29 q 674 -4 600 18 l 736 -22 l 836 78 l 688 136 q 540 197 540 193 q 725 264 540 203 l 910 328 q 885 369 910 332 q 836 408 858 408 q 349 439 731 408 l 288 444 l 271 407 "},"s":{"ha":697,"x_min":81,"x_max":619,"o":"m 400 300 q 126 160 188 211 l 101 139 l 122 121 q 133 97 144 104 q 128 65 124 92 q 144 38 132 46 q 210 10 157 29 q 406 -37 333 -37 q 453 -51 429 -37 q 476 -76 476 -64 q 451 -117 476 -94 q 403 -142 426 -139 q 378 -145 396 -142 q 335 -153 361 -149 q 292 -160 308 -157 q 225 -168 247 -168 q 194 -154 194 -168 q 201 -137 194 -149 q 200 -112 211 -124 q 207 -86 181 -93 q 224 -74 224 -82 q 203 -62 224 -62 q 132 -58 176 -62 q 97 -56 99 -56 q 83 -59 86 -56 q 81 -72 81 -62 q 94 -101 81 -92 q 122 -149 111 -114 q 164 -201 138 -186 q 204 -212 183 -212 q 369 -194 231 -212 q 565 -168 468 -182 q 592 -107 592 -162 q 589 -54 592 -96 l 583 13 l 531 13 q 465 22 497 13 q 351 64 432 31 q 224 121 224 118 q 258 149 225 126 q 299 172 292 172 q 453 247 303 172 q 458 242 454 249 q 469 225 463 236 q 481 201 475 214 q 518 150 501 157 q 556 122 535 144 q 578 89 578 100 q 588 65 578 76 q 608 54 597 54 q 619 74 619 54 q 603 110 619 106 q 564 175 589 114 q 539 263 539 236 q 540 269 539 265 q 540 275 540 272 q 528 316 540 292 q 507 340 515 340 q 400 300 496 340 "},"t":{"ha":990,"x_min":79,"x_max":910,"o":"m 369 181 q 365 185 365 181 q 369 189 365 189 q 374 185 374 189 q 372 181 374 181 q 369 181 369 181 m 471 290 q 467 294 467 290 q 471 299 467 299 q 475 294 475 299 q 473 290 475 290 q 471 290 471 290 m 79 368 q 118 313 81 346 q 201 288 132 300 q 322 274 269 275 q 357 268 357 274 q 301 114 357 263 q 239 -49 246 -35 q 219 -62 232 -62 q 200 -132 208 -62 q 197 -185 197 -154 q 217 -224 197 -224 q 332 11 226 -224 q 443 253 435 242 q 488 257 447 257 l 513 257 l 532 257 q 607 272 579 257 l 640 289 l 753 272 q 874 258 850 258 q 910 272 910 258 q 856 286 910 279 q 775 304 810 290 q 653 325 757 314 q 564 333 597 329 q 513 339 531 336 q 489 345 494 342 q 483 353 483 349 q 446 368 483 368 q 410 360 425 368 q 368 351 397 351 q 258 358 351 351 q 118 375 125 368 q 99 383 110 383 q 79 368 79 383 "},"u":{"ha":799,"x_min":81,"x_max":719,"o":"m 578 240 l 458 49 l 351 -17 q 242 -72 242 -82 q 265 -10 242 -65 q 290 79 290 44 q 274 106 290 106 q 217 85 258 106 q 174 50 186 68 q 126 -50 163 32 q 81 -168 81 -162 l 86 -172 q 106 -185 93 -176 q 128 -200 118 -193 l 172 -232 l 267 -165 q 364 -100 360 -100 q 359 -119 365 -100 q 347 -158 353 -137 l 340 -178 q 435 -229 340 -185 q 458 -196 442 -232 q 586 36 458 -194 q 692 249 692 225 q 691 252 692 250 q 690 256 690 254 q 682 315 682 286 q 700 390 682 358 q 719 429 719 426 q 708 433 719 433 q 578 240 697 433 "},"v":{"ha":889,"x_min":71,"x_max":808,"o":"m 313 -62 q 313 -69 315 -65 q 304 -72 310 -72 l 292 -67 q 294 -54 278 -54 q 313 -62 308 -54 m 729 583 q 640 463 729 569 q 526 340 550 356 q 383 160 490 317 q 256 -25 267 -11 l 236 -50 l 228 -3 q 199 144 210 75 q 180 229 186 210 q 163 253 174 249 q 136 244 146 258 q 99 196 128 226 q 82 164 71 164 q 131 -10 94 164 q 182 -229 169 -193 q 217 -290 203 -290 q 221 -286 219 -290 q 418 39 224 -278 q 518 232 508 186 q 550 311 528 275 q 663 451 575 350 q 760 551 751 551 q 792 593 771 551 q 808 631 808 625 q 797 636 808 636 q 757 615 785 636 q 729 583 729 594 "},"w":{"ha":967,"x_min":79,"x_max":888,"o":"m 454 172 q 450 176 450 172 q 454 181 450 181 q 458 176 458 181 q 456 172 458 172 q 454 172 454 172 m 415 176 q 408 168 414 169 q 399 182 399 171 q 407 189 399 189 q 415 176 415 189 m 768 335 q 726 319 761 325 l 693 314 l 600 129 q 501 -50 513 -50 q 488 13 493 -50 q 474 76 483 71 q 431 81 472 78 q 349 87 389 83 q 308 93 308 90 q 338 96 308 96 q 361 95 344 96 q 389 94 378 94 l 476 92 l 471 146 q 458 219 467 190 q 419 260 453 233 q 374 286 385 286 q 371 285 371 286 l 208 -72 l 206 -50 q 222 189 206 63 q 225 236 225 219 q 221 289 225 265 q 207 360 211 347 q 194 374 203 374 l 192 372 q 188 372 189 372 q 149 324 171 371 q 126 250 126 278 q 129 239 126 244 q 132 221 132 233 q 108 49 132 178 l 79 -126 l 103 -144 q 132 -164 125 -164 q 138 -181 138 -164 q 192 -206 138 -206 q 224 -221 208 -206 q 232 -225 228 -225 q 255 -199 240 -225 q 311 -86 269 -174 q 385 63 382 63 q 395 5 388 63 q 413 -115 403 -53 q 431 -186 422 -178 q 471 -197 442 -197 q 497 -207 497 -197 q 494 -219 497 -208 q 501 -240 490 -240 q 635 -1 511 -240 q 799 335 758 238 q 828 394 818 381 q 850 408 838 408 q 876 426 864 408 q 888 468 888 444 q 875 513 888 483 q 856 543 863 543 q 833 492 854 543 q 790 388 811 440 q 768 335 769 336 "},"x":{"ha":736,"x_min":81,"x_max":656,"o":"m 194 276 q 181 269 188 274 q 172 262 175 265 q 169 257 168 258 q 268 135 172 249 q 357 11 357 29 q 354 3 357 8 q 288 -84 349 -6 q 161 -244 226 -162 q 93 -331 96 -326 q 81 -356 81 -350 q 83 -358 81 -358 q 139 -315 96 -358 q 206 -263 172 -282 q 306 -224 240 -244 l 360 -206 l 386 -140 q 421 -69 413 -75 l 422 -69 q 481 -125 435 -69 q 574 -206 532 -189 l 615 -224 l 610 -187 q 607 -169 608 -182 q 605 -152 606 -157 q 603 -137 604 -147 q 599 -123 601 -128 q 594 -110 597 -118 q 588 -98 592 -103 q 580 -87 585 -93 q 568 -76 575 -82 q 508 -18 540 -58 l 478 21 l 522 86 q 611 197 564 150 l 656 244 l 608 268 q 560 285 575 285 q 538 251 538 285 q 429 94 538 222 l 428 93 q 372 152 417 93 q 324 233 328 211 q 313 260 321 253 q 283 276 306 268 q 238 289 253 289 q 194 276 224 289 "},"y":{"ha":817,"x_min":79,"x_max":739,"o":"m 429 285 q 397 259 401 268 q 392 214 392 250 q 397 168 392 182 q 419 135 401 154 q 460 108 442 108 l 465 108 l 469 110 q 478 100 483 111 q 276 -149 475 94 q 81 -396 81 -387 q 85 -406 79 -406 q 144 -349 97 -406 q 197 -294 175 -311 q 260 -257 219 -276 l 324 -225 l 529 21 q 736 275 733 268 q 679 282 739 282 q 622 278 636 282 q 579 251 607 274 q 500 178 500 189 q 503 172 500 174 q 504 156 514 165 q 490 147 496 147 q 481 186 481 147 q 482 232 481 214 q 485 279 485 271 q 474 306 485 306 q 429 285 463 306 "},"z":{"ha":922,"x_min":81,"x_max":842,"o":"m 282 -131 q 278 -126 278 -131 q 282 -122 278 -122 q 286 -126 286 -122 q 284 -131 286 -131 q 282 -131 282 -131 m 211 -117 q 233 -122 211 -121 q 254 -124 254 -122 q 228 -132 254 -126 q 167 -165 188 -140 q 150 -193 150 -183 q 160 -208 150 -199 q 181 -219 171 -219 q 221 -211 190 -219 q 493 -147 282 -194 q 685 -100 643 -112 q 738 -75 728 -87 q 782 -50 756 -56 q 808 -39 808 -44 q 768 -11 808 -31 l 729 10 l 564 -26 q 385 -62 467 -49 q 379 -60 379 -62 q 574 211 379 -51 q 692 353 661 331 q 796 375 722 375 q 842 382 842 375 q 508 394 842 389 q 126 406 182 400 l 81 410 l 101 392 q 178 375 121 375 q 265 368 243 375 q 286 342 286 361 q 294 307 286 315 q 336 299 303 299 q 389 301 344 299 q 508 313 465 306 q 539 308 539 318 q 375 93 539 300 q 211 -117 211 -114 "},"":{"ha":361,"x_min":0,"x_max":0,"o":""}}}
